<svg width="130" height="95" viewBox="0 0 130 95" fill="none" xmlns="http://www.w3.org/2000/svg">
<g clip-path="url(#clip0_141_613)">
<path d="M54.4007 88.8074H35.2955C30.5789 88.8074 29.6779 89.9896 31.6653 90.8622C33.6526 91.7348 24.1398 91.3126 22.5234 92.8607C20.8805 94.4089 25.0672 95 29.5984 95H66.0069C69.6371 95 68.7362 92.1852 66.5634 91.8193C64.3905 91.4533 70.0876 91.96 72.2605 91.1437C74.4333 90.3274 72.8699 88.8074 54.4007 88.8074Z" fill="#99ADF9"/>
<path d="M82.2768 93.9585C81.7203 94.7748 79.8655 94.9719 76.7122 94.8874C74.3274 94.803 71.8365 94.6059 71.8365 93.4237C71.8365 92.2415 77.9046 92.3822 80.0245 92.6356C81.8528 92.8607 82.5948 93.48 82.2768 93.9585Z" fill="#C5D3FF"/>
<path d="M27.372 90.0178C27.0011 90.6089 25.7292 90.7778 23.5033 90.7778C21.8339 90.7778 20.0851 90.6933 20.0321 89.877C19.9791 89.0326 24.2453 89.0044 25.7557 89.1452C27.0276 89.2578 27.584 89.6518 27.372 90.0178Z" fill="#C5D3FF"/>
<path d="M120.673 88.1037H111.213C110.855 88.1021 110.512 87.9504 110.259 87.6815C110.006 87.4126 109.863 87.0484 109.861 86.6681V76.2815C109.863 75.9012 110.006 75.537 110.259 75.2681C110.512 74.9992 110.855 74.8475 111.213 74.8459H120.673C121.031 74.8475 121.373 74.9992 121.627 75.2681C121.88 75.537 122.023 75.9012 122.024 76.2815V86.6681C122.023 87.0484 121.88 87.4126 121.627 87.6815C121.373 87.9504 121.031 88.1021 120.673 88.1037Z" fill="#C5DFFF"/>
<path d="M120.222 87.6252H111.133C110.789 87.6246 110.459 87.4791 110.216 87.2205C109.972 86.962 109.835 86.6115 109.835 86.2459V76.2252C109.835 75.8596 109.972 75.5091 110.216 75.2506C110.459 74.992 110.789 74.8465 111.133 74.8459H120.222C120.566 74.8465 120.896 74.992 121.14 75.2506C121.383 75.5091 121.52 75.8596 121.521 76.2252V86.2459C121.52 86.6115 121.383 86.962 121.14 87.2205C120.896 87.4791 120.566 87.6246 120.222 87.6252Z" fill="#E1ECFF"/>
<path d="M115.77 85.4015C117.878 85.4015 119.586 83.5867 119.586 81.3481C119.586 79.1096 117.878 77.2948 115.77 77.2948C113.663 77.2948 111.955 79.1096 111.955 81.3481C111.955 83.5867 113.663 85.4015 115.77 85.4015Z" fill="#C5DFFF"/>
<path d="M114.26 83.1778C114.197 83.1778 114.136 83.1511 114.091 83.1036C114.047 83.0561 114.022 82.9916 114.022 82.9244V79.8C114.022 79.7328 114.047 79.6684 114.091 79.6209C114.136 79.5734 114.197 79.5467 114.26 79.5467V79.5467C114.323 79.5467 114.384 79.5734 114.429 79.6209C114.473 79.6684 114.499 79.7328 114.499 79.8V82.9244C114.499 82.9916 114.473 83.0561 114.429 83.1036C114.384 83.1511 114.323 83.1778 114.26 83.1778Z" fill="#1C3177"/>
<path d="M117.016 83.1778C116.953 83.1778 116.892 83.1511 116.847 83.1036C116.803 83.0561 116.777 82.9916 116.777 82.9244V79.8C116.777 79.7328 116.803 79.6684 116.847 79.6209C116.892 79.5734 116.953 79.5467 117.016 79.5467V79.5467C117.079 79.5467 117.14 79.5734 117.185 79.6209C117.229 79.6684 117.254 79.7328 117.254 79.8V82.9244C117.254 82.9916 117.229 83.0561 117.185 83.1036C117.14 83.1511 117.079 83.1778 117.016 83.1778Z" fill="#1C3177"/>
<path d="M92.6641 70.5393C92.4782 70.5439 92.2923 70.5345 92.1077 70.5111C88.0004 70.2015 85.1916 68.7096 80.475 61.0815C78.8321 58.4356 77.7191 55.7333 76.6327 53.1156C74.7779 48.64 73.188 44.7556 69.5842 42.9541C64.0461 40.1956 58.614 44.7556 58.561 44.8119C58.4482 44.9051 58.3055 44.9477 58.1634 44.9305C58.0214 44.9133 57.8914 44.8377 57.8013 44.7199C57.7111 44.602 57.6681 44.4513 57.6813 44.3001C57.6945 44.149 57.763 44.0093 57.872 43.9111C58.1105 43.7141 63.8871 38.8444 70.0347 41.9126C74.0094 43.883 75.7583 48.1333 77.6132 52.637C78.6731 55.2267 79.786 57.9007 81.3759 60.4341C85.8541 67.64 88.4244 69.0474 92.1871 69.357C94.9959 69.5822 96.5063 67.7807 97.9637 66.0074C98.451 65.4014 98.9732 64.8279 99.5271 64.2904C100.806 63.1053 102.362 62.308 104.032 61.9822C104.101 61.9711 104.172 61.9747 104.241 61.9928C104.309 62.0108 104.373 62.043 104.43 62.0874C104.486 62.1318 104.534 62.1877 104.571 62.2517C104.607 62.3158 104.631 62.3868 104.641 62.4607C104.652 62.5347 104.648 62.6101 104.631 62.6826C104.614 62.7551 104.584 62.8234 104.542 62.8835C104.5 62.9437 104.448 62.9944 104.388 63.033C104.327 63.0715 104.26 63.0971 104.191 63.1081C102.732 63.4254 101.373 64.1326 100.243 65.163C99.7242 65.6632 99.2373 66.1992 98.7852 66.7674C97.3013 68.5689 95.6584 70.5393 92.6641 70.5393Z" fill="#1C3177"/>
<path d="M108.086 60.04L110.312 58.0415C110.365 57.9935 110.427 57.9574 110.494 57.9356C110.56 57.9138 110.631 57.9066 110.7 57.9145C110.769 57.9224 110.837 57.9452 110.897 57.9816C110.958 58.0179 111.011 58.067 111.054 58.1259C111.132 58.2353 111.167 58.3724 111.153 58.5088C111.138 58.6452 111.074 58.7702 110.974 58.8578L108.722 60.9689L108.086 60.04Z" fill="#1C3177"/>
<path d="M106.708 58.3511L108.934 56.3526C108.987 56.3046 109.049 56.2686 109.116 56.2467C109.182 56.2249 109.253 56.2177 109.322 56.2256C109.391 56.2335 109.459 56.2563 109.519 56.2927C109.58 56.329 109.634 56.3781 109.676 56.437C109.754 56.5464 109.789 56.6836 109.775 56.8199C109.76 56.9563 109.696 57.0813 109.596 57.1689L107.344 59.28L106.708 58.3511Z" fill="#1C3177"/>
<path d="M109.649 61.0815C108.957 61.9205 108.213 62.7103 107.424 63.4459C106.072 64.6844 104.323 64.4593 103.528 63.5022C103.475 63.4459 103.449 63.3896 103.396 63.3333C103.027 62.836 102.854 62.2062 102.914 61.5763C102.973 60.9465 103.26 60.3655 103.714 59.9556C104.8 58.8859 106.602 57.3659 106.602 57.3659L108.775 60.04L109.649 61.0815Z" fill="#E1ECFF"/>
<path d="M109.649 61.0815C108.957 61.9205 108.213 62.7103 107.424 63.4459C106.072 64.6844 104.323 64.4593 103.528 63.5022C103.475 63.4459 103.449 63.3896 103.396 63.3333C104.355 63.3374 105.294 63.0439 106.099 62.4889C107.044 61.7521 107.931 60.9329 108.749 60.04L109.649 61.0815Z" fill="#C5DFFF"/>
<path d="M69.1072 82.643H69.0012C67.1993 82.6148 62.5091 78.8711 61.3167 77.1259C60.0978 75.3807 59.0114 73.157 60.4953 71.7215C60.835 71.4184 61.2483 71.2233 61.6877 71.1585C62.5005 71.0235 63.3315 71.2141 64.0195 71.6933C65.2914 72.5659 68.8687 76.9852 69.8756 78.8711C70.8561 80.7289 70.8296 82.6148 69.1072 82.643Z" fill="#1C3177"/>
<path d="M69.1072 82.643C69.3722 82.4741 69.5577 82.1926 69.7166 81.6296C69.9816 80.6444 69.0542 78.6741 66.0069 74.9022C64.1785 72.6222 62.6151 71.6089 61.6877 71.1585C62.5005 71.0235 63.3315 71.2141 64.0195 71.6933C65.2914 72.5659 68.8687 76.9852 69.8756 78.8711C70.8561 80.7289 70.8296 82.6148 69.1072 82.643Z" fill="#384D89"/>
<path d="M60.1508 72.9321C60.4158 72.144 61.9527 72.2847 63.2776 73.664C64.6025 75.0432 66.6164 77.7736 66.1129 78.9558C65.6094 80.1381 63.7016 79.181 62.1382 77.5484C60.5748 75.9158 59.7268 74.1988 60.1508 72.9321Z" fill="#142966"/>
<path d="M63.4896 76.4504C63.4683 76.9612 63.3416 77.4609 63.1186 77.9141C63.1186 77.9141 55.9906 81.517 47.0607 74.9022C37.9719 68.1748 37.9454 59.7867 37.9454 59.7022C42.609 54.8607 47.8557 60.1807 47.8557 60.1807C48.1356 62.2831 48.7258 64.3255 49.6046 66.2326C50.426 67.9778 51.6184 69.7511 53.3143 70.9333C55.8687 72.6963 58.9345 73.4255 61.9527 72.9881C61.9527 72.9881 62.8006 73.2696 63.3041 74.9867C63.4773 75.4512 63.541 75.9537 63.4896 76.4504Z" fill="#E1ECFF"/>
<path d="M63.4896 76.4504C63.4683 76.9612 63.3416 77.4609 63.1186 77.9141C63.1186 77.9141 55.9906 81.517 47.0607 74.9022C37.9719 68.1748 37.9454 59.7867 37.9454 59.7022C42.609 54.8607 47.8557 60.1807 47.8557 60.1807C48.1356 62.2831 48.7258 64.3255 49.6046 66.2326C48.9054 66.8123 48.1283 67.2772 47.2992 67.6118C46.3136 67.8937 45.299 68.0449 44.2784 68.0622C44.2784 68.0622 48.7566 75.1837 55.3812 76.4785C58.9584 77.1259 61.7142 76.8444 63.4896 76.4504Z" fill="#C5DFFF"/>
<path d="M53.4996 77.8854C53.428 77.885 53.3584 77.8602 53.3011 77.8146C53.2438 77.769 53.2019 77.7049 53.1816 77.632C53.1649 77.5859 53.1571 77.5367 53.1588 77.4873C53.1604 77.4379 53.1715 77.3894 53.1913 77.3447C53.2111 77.2999 53.2393 77.26 53.274 77.2271C53.3088 77.1942 53.3495 77.1692 53.3936 77.1535C53.4201 77.1535 54.851 76.5624 55.2749 75.3239C55.5462 74.5959 55.5743 73.7912 55.3544 73.0439C55.3213 72.9541 55.3222 72.8542 55.3567 72.7651C55.3913 72.6759 55.4569 72.6044 55.5399 72.5654C55.6244 72.5302 55.7185 72.5311 55.8024 72.5678C55.8863 72.6045 55.9537 72.6742 55.9904 72.7624C56.268 73.6827 56.24 74.6763 55.9109 75.5772C55.3544 77.1535 53.685 77.8009 53.6056 77.8291C53.5952 77.8486 53.5795 77.8644 53.5607 77.8744C53.5418 77.8844 53.5205 77.8883 53.4996 77.8854Z" fill="#C5DFFF"/>
<path d="M47.3522 74.9867C47.3086 74.9889 47.2651 74.9819 47.224 74.9661C47.183 74.9503 47.1454 74.926 47.1133 74.8945C47.0812 74.8631 47.0554 74.8252 47.0373 74.783C47.0191 74.7408 47.0091 74.6952 47.0077 74.6489C47.0068 74.5534 47.0386 74.4609 47.097 74.3884C47.1555 74.3159 47.2368 74.2684 47.3257 74.2548C47.3522 74.2548 49.2071 74.1141 50.1345 72.8193C50.6886 72.0614 50.9955 71.1327 51.009 70.1733C51.0019 70.0763 51.0315 69.9802 51.0911 69.9063C51.1508 69.8324 51.2356 69.7867 51.3269 69.7793C51.4183 69.7718 51.5087 69.8032 51.5783 69.8665C51.6479 69.9299 51.6909 70.02 51.6979 70.117C51.7115 71.2593 51.3561 72.372 50.691 73.2696C49.5516 74.8178 47.4582 74.9585 47.3522 74.9867Z" fill="#C5DFFF"/>
<path d="M34.7921 69.6664C34.6807 69.9373 34.5383 70.1926 34.3681 70.4264C34.0727 70.8334 33.6915 71.1612 33.2552 71.3834C32.9554 71.5475 32.6337 71.6614 32.3012 71.7212C32.3012 71.7212 28.565 67.8649 25.3057 60.9968C22.0464 54.1568 21.808 46.2753 21.808 46.2753C22.0826 46.117 22.3657 45.976 22.6559 45.8531C23.5136 45.4917 24.4455 45.3752 25.3587 45.5153C26.0342 45.6048 26.6842 45.8446 27.2666 46.219C27.2666 46.219 27.4786 52.7494 29.6514 58.6323C31.8243 64.5434 35.004 68.0338 35.004 68.0338C35.0714 68.5883 34.9982 69.1519 34.7921 69.6664Z" fill="#E1ECFF"/>
<path d="M34.7921 69.6667C33.6261 68.5689 31.4003 66.0637 29.2539 61.2222C26.6836 55.4237 25.6502 47.9644 25.3852 45.5156C26.0607 45.6051 26.7107 45.8449 27.2931 46.2193C27.2931 46.2193 27.5051 52.7496 29.6779 58.6326C31.8508 64.5437 35.0305 68.0341 35.0305 68.0341C35.0802 68.5909 34.9982 69.152 34.7921 69.6667Z" fill="#F8FBFF"/>
<path d="M33.2552 71.3837C32.9555 71.5478 32.6337 71.6617 32.3012 71.7215C32.3012 71.7215 28.565 67.8652 25.3057 60.997C22.0464 54.157 21.808 46.2756 21.808 46.2756C22.0826 46.1172 22.3657 45.9763 22.6559 45.8533C22.8414 48.3867 23.7158 56.7185 27.4256 63.2489C29.9694 67.6963 32.0098 70.117 33.2552 71.3837Z" fill="#C5DFFF"/>
<path d="M40.6482 75.437C39.7334 75.9636 38.6739 76.1329 37.6539 75.9156C36.0375 75.5215 35.428 74.9585 35.428 74.9585C35.428 74.9585 34.8981 74.1141 35.2955 73.6356L35.3485 73.5793C35.6899 73.279 36.1024 73.0842 36.5409 73.0163C37.0452 73.4354 37.5972 73.7853 38.1838 74.0578C38.8728 74.3111 40.0917 74.0578 40.5422 74.3674C40.6314 74.4366 40.6992 74.5325 40.7369 74.6427C40.7747 74.753 40.7807 74.8728 40.7541 74.9867C40.7525 75.1435 40.7162 75.2978 40.6482 75.437Z" fill="#E1ECFF"/>
<path d="M40.6482 75.437C39.7334 75.9636 38.6739 76.1329 37.6539 75.9156C36.0375 75.5215 35.428 74.9585 35.428 74.9585C35.428 74.9585 34.8981 74.1141 35.2955 73.6356C35.7725 74.1141 36.9119 75.1556 38.2368 75.3244C39.0893 75.4354 39.9544 75.3193 40.7541 74.9867C40.7525 75.1435 40.7162 75.2978 40.6482 75.437Z" fill="#C5DFFF"/>
<path d="M40.1447 74.6489C39.078 74.8356 37.9834 74.6269 37.0444 74.0578C36.6285 73.8379 36.2727 73.5084 36.011 73.1007C36.0128 72.9168 36.0488 72.735 36.117 72.5659C36.1852 72.3969 36.2843 72.2438 36.4084 72.1156C36.6204 71.9185 36.9649 71.8341 37.4949 72.003C37.4949 72.003 38.5283 72.96 40.2507 72.3126C41.9731 71.6652 41.8671 71.2711 42.238 71.1585C42.503 71.0741 42.8475 71.4963 42.927 71.9748C42.9767 72.1909 42.9581 72.4185 42.874 72.6222C42.5748 73.1414 42.178 73.5893 41.7084 73.938C41.2388 74.2868 40.7064 74.5288 40.1447 74.6489Z" fill="#E1ECFF"/>
<path d="M40.1447 74.6489C39.078 74.8356 37.9834 74.6269 37.0444 74.0578C36.6285 73.8379 36.2727 73.5084 36.011 73.1007C36.0128 72.9168 36.0488 72.735 36.117 72.5659C36.1852 72.3969 36.2843 72.2438 36.4084 72.1156C37.0444 72.7911 38.4223 74.0015 39.9327 73.6919C41.07 73.428 42.1158 72.8335 42.9535 71.9748C43.0032 72.1909 42.9846 72.4185 42.9005 72.6222C42.5922 73.1388 42.1895 73.5843 41.7161 73.9324C41.2427 74.2806 40.7083 74.5242 40.1447 74.6489Z" fill="#C5DFFF"/>
<path d="M39.8532 72.7914C38.841 72.9744 37.8004 72.7753 36.9119 72.2284C36.5143 72.0282 36.1754 71.7168 35.9315 71.3277C35.9355 70.97 36.0682 70.6276 36.3025 70.3707C36.5144 70.1736 36.8324 70.0892 37.3359 70.2581C37.3359 70.2581 38.3163 71.1588 39.9592 70.5395C41.6021 69.9203 41.4961 69.5544 41.8406 69.4418C42.0791 69.3573 42.4235 69.7795 42.503 70.2299C42.5516 70.4368 42.5329 70.655 42.45 70.8492C42.1696 71.3483 41.7935 71.7791 41.3461 72.1137C40.8987 72.4483 40.3901 72.6792 39.8532 72.7914Z" fill="#E1ECFF"/>
<path d="M39.8532 72.7914C38.841 72.9744 37.8004 72.7753 36.9119 72.2284C36.5143 72.0282 36.1754 71.7168 35.9315 71.3277C35.9355 70.97 36.0682 70.6276 36.3025 70.3707C36.8854 71.0181 38.2103 72.1721 39.6412 71.8625C40.7164 71.6028 41.7054 71.0386 42.503 70.2299C42.5516 70.4368 42.5329 70.655 42.45 70.8492C42.1696 71.3483 41.7935 71.7791 41.3461 72.1137C40.8987 72.4483 40.3901 72.6792 39.8532 72.7914Z" fill="#C5DFFF"/>
<path d="M39.6675 71.3837C38.7878 71.6994 37.832 71.6795 36.9646 71.3274C36.5897 71.2075 36.2514 70.9841 35.9842 70.68C35.9631 70.5205 35.9734 70.3581 36.0145 70.2031C36.0555 70.048 36.1264 69.9037 36.2227 69.7793C36.3817 69.5822 36.6732 69.4696 37.1501 69.5259C37.1501 69.5259 38.1306 70.1733 39.535 69.4133C40.9394 68.6252 40.8069 68.3156 41.0984 68.1467C41.3103 68.0341 41.6548 68.3437 41.7873 68.7378C41.8495 68.9183 41.8587 69.1146 41.8138 69.3007C41.3818 70.2661 40.6115 71.0137 39.6675 71.3837Z" fill="#E1ECFF"/>
<path d="M39.6675 71.3837C38.7878 71.6994 37.832 71.6795 36.9646 71.3274C36.5897 71.2075 36.2514 70.9841 35.9842 70.68C35.9631 70.5205 35.9734 70.3581 36.0145 70.2031C36.0555 70.048 36.1264 69.9037 36.2227 69.7793C36.8322 70.2578 38.1306 71.1022 39.376 70.6237C40.3213 70.2444 41.1476 69.591 41.7608 68.7378C41.823 68.9183 41.8322 69.1146 41.7873 69.3007C41.5835 69.7812 41.2908 70.2131 40.9266 70.571C40.5624 70.9288 40.1342 71.2052 39.6675 71.3837Z" fill="#C5DFFF"/>
<path d="M38.7403 70.0326C38.6713 70.4127 38.5828 70.7886 38.4753 71.1585C38.2563 71.9883 37.9166 72.7766 37.4684 73.4948C37.2766 73.7578 37.0639 74.0026 36.8324 74.2267C36.448 74.6277 35.9738 74.9183 35.4545 75.0711C35.4545 75.0711 33.4142 72.9882 32.8312 72.2844C32.4518 71.8382 32.0978 71.3682 31.7713 70.877C31.6778 70.3374 31.6778 69.7841 31.7713 69.2444C31.8394 68.7662 32.0322 68.3176 32.3277 67.9496C32.4823 67.7919 32.6509 67.6505 32.8312 67.5274C33.4247 67.2486 34.0934 67.2085 34.7126 67.4148C34.7126 67.4148 36.6734 68.7096 37.5479 69.2163C37.9714 69.4428 38.3711 69.7164 38.7403 70.0326Z" fill="#E1ECFF"/>
<path d="M38.7403 70.0326C38.6713 70.4127 38.5828 70.7886 38.4753 71.1585C37.7598 70.7247 37.0695 70.2453 36.4085 69.723C35.2582 68.9162 34.0637 68.183 32.8312 67.5274C33.4247 67.2486 34.0934 67.2085 34.7126 67.4148C34.7126 67.4148 36.6734 68.7096 37.5479 69.2163C37.9714 69.4428 38.3711 69.7164 38.7403 70.0326Z" fill="#F8FBFF"/>
<path d="M36.8324 74.1985C36.4389 74.5867 35.9678 74.8753 35.4545 75.043C35.4545 75.043 33.4142 72.9319 32.8312 72.2563C32.4518 71.8101 32.0978 71.3401 31.7713 70.8489C31.6778 70.3092 31.6778 69.756 31.7713 69.2163C32.5927 70.2015 34.7921 72.7348 36.329 73.8044C36.5144 73.9733 36.6999 74.0859 36.8324 74.1985Z" fill="#C5DFFF"/>
<path d="M29.2539 66.9926C29.0261 66.9741 28.8024 66.9171 28.5915 66.8237C28.5157 66.7774 28.4596 66.7018 28.4349 66.6127C28.4102 66.5235 28.4188 66.4277 28.459 66.3452C28.4762 66.3043 28.5008 66.2675 28.5315 66.2368C28.5622 66.2061 28.5983 66.1823 28.6377 66.1665C28.6772 66.1508 28.7192 66.1436 28.7613 66.1453C28.8034 66.147 28.8447 66.1575 28.883 66.1763C28.9095 66.2044 29.6514 66.5704 30.6319 65.8948C31.6123 65.2193 31.7713 64.3748 31.7713 64.3467C31.7743 64.3005 31.7869 64.2556 31.8082 64.2152C31.8294 64.1748 31.8588 64.1399 31.8943 64.113C31.9297 64.0861 31.9704 64.0679 32.0132 64.0596C32.0561 64.0513 32.1002 64.0532 32.1422 64.0652C32.2275 64.0887 32.3017 64.1447 32.3506 64.2226C32.3995 64.3005 32.4196 64.3947 32.4072 64.4874C32.4072 64.5437 32.2217 65.6696 30.9763 66.5422C30.4568 66.8701 29.8574 67.0268 29.2539 66.9926Z" fill="#C5DFFF"/>
<path d="M26.4187 61.3348C26.0911 61.2981 25.77 61.2129 25.4647 61.0815C25.3889 61.0352 25.3328 60.9596 25.3081 60.8705C25.2835 60.7813 25.2921 60.6855 25.3322 60.603C25.3474 60.5637 25.3698 60.5281 25.3981 60.4982C25.4265 60.4683 25.4602 60.4448 25.4973 60.429C25.5344 60.4133 25.5741 60.4056 25.614 60.4065C25.6539 60.4073 25.6933 60.4167 25.7297 60.4341C25.7562 60.4622 26.6837 60.9407 27.9026 60.3496C29.095 59.7867 29.307 58.9704 29.307 58.9141C29.314 58.8706 29.3294 58.8292 29.3523 58.7925C29.3752 58.7557 29.405 58.7245 29.4399 58.7006C29.4748 58.6768 29.514 58.6609 29.555 58.6541C29.596 58.6472 29.6378 58.6495 29.6779 58.6607C29.7604 58.6933 29.8281 58.758 29.8675 58.8416C29.9068 58.9251 29.9149 59.0215 29.8899 59.1111C29.8899 59.1674 29.5985 60.2933 28.1146 61.0252C27.5855 61.2876 26.9999 61.3945 26.4187 61.3348Z" fill="#C5DFFF"/>
<path d="M24.4048 55.0015C23.9763 54.9923 23.5605 54.8451 23.2124 54.5793C23.1467 54.5164 23.105 54.43 23.0953 54.3366C23.0855 54.2432 23.1083 54.1493 23.1594 54.0726C23.1821 54.0328 23.2129 53.999 23.2497 53.9739C23.2865 53.9487 23.3282 53.9328 23.3717 53.9274C23.4152 53.9219 23.4592 53.9271 23.5005 53.9425C23.5418 53.958 23.5792 53.9832 23.6099 54.0163C23.6364 54.0163 24.2194 54.4948 25.5178 54.2133C27.1606 53.8474 27.6111 53.1719 27.6376 53.1437C27.6606 53.105 27.6909 53.0718 27.7267 53.0462C27.7624 53.0207 27.8028 53.0034 27.8452 52.9954C27.8877 52.9875 27.9312 52.9891 27.973 53C28.0148 53.011 28.054 53.0312 28.0881 53.0593C28.1538 53.1222 28.1955 53.2085 28.2053 53.3019C28.215 53.3953 28.1922 53.4892 28.1411 53.5659C28.0881 53.6504 27.5051 54.4667 25.6503 54.917C25.2413 55.0104 24.8216 55.0389 24.4048 55.0015Z" fill="#C5DFFF"/>
<path d="M28.3265 50.3007C27.121 50.8828 25.8083 51.1713 24.4843 51.1452C23.6649 51.1538 22.8527 50.9812 22.0995 50.6385C21.8188 50.5156 21.5592 50.3445 21.331 50.1319C21.331 50.1319 21.3575 49.6252 21.278 47.9644C21.013 42.7289 23.2389 42.0533 24.6963 41.997C25.0469 41.9959 25.3956 42.0529 25.7297 42.1659C26.2806 42.3872 26.7756 42.7414 27.1756 43.2006C27.5757 43.6597 27.8699 44.2113 28.0351 44.8119C28.4855 46.5289 28.3265 50.3007 28.3265 50.3007Z" fill="#1C3177"/>
<path d="M25.0673 45.2341C23.3979 46.1911 22.7089 45.5718 22.7089 45.5718C22.7089 45.5718 22.3115 47.0074 22.126 49.8504C22.0995 50.1318 22.0995 50.4133 22.073 50.6385C21.7923 50.5156 21.5327 50.3445 21.3045 50.1318C21.3045 50.1318 21.331 49.6252 21.2515 47.9644C20.9865 42.7289 23.2124 42.0533 24.6698 41.997C25.0204 41.9959 25.3691 42.0529 25.7032 42.1659C26.1272 42.9259 26.6042 44.3615 25.0673 45.2341Z" fill="#384D89"/>
<path d="M58.9054 54.0163C58.8259 54.4667 58.7464 54.8889 58.6404 55.3111C58.0045 57.9289 56.8915 60.04 55.3281 61.4193C50.8499 65.3881 44.7024 67.4993 36.8059 62.0667C30.4994 57.7318 24.6963 47.9081 22.6029 44.1081C22.0729 43.1511 21.7815 42.56 21.7815 42.56C21.7815 42.56 25.4117 42.363 31.1353 39.5763C33.958 38.1741 36.662 36.5167 39.2173 34.6222C44.3844 30.7941 47.3787 27.2193 49.1011 24.4326C51.1414 21.1674 51.4329 19.0281 51.4329 19.0281C51.4329 19.0281 51.9364 20.0133 52.8108 22.1807C54.54 26.656 56.0264 31.2329 57.2625 35.8889C59.1969 42.9822 59.7268 49.2593 58.9054 54.0163Z" fill="#E1ECFF"/>
<path d="M52.8108 22.1807C52.0629 23.7402 51.2037 25.2364 50.2405 26.6563C47.4597 30.6425 44.0101 34.0492 40.0652 36.7052C37.5635 38.451 34.9314 39.9761 32.1952 41.2652C27.4786 43.4889 24.2193 43.9956 22.5764 44.08C22.0464 43.123 21.755 42.5319 21.755 42.5319C21.755 42.5319 25.3852 42.3348 31.1088 39.5481C33.9315 38.146 36.6355 36.4885 39.1908 34.5941C44.3579 30.7659 47.3522 27.1911 49.0746 24.4044C51.1149 21.1393 51.4064 19 51.4064 19C51.9267 20.0334 52.3954 21.0951 52.8108 22.1807Z" fill="#1C3177"/>
<path d="M58.6404 55.3111C58.0045 57.9289 56.8915 60.04 55.3281 61.4193C50.8499 65.3881 44.7024 67.4993 36.8059 62.0667C30.4994 57.7318 24.6963 47.9081 22.6029 44.1081C22.0729 43.1511 21.7815 42.56 21.7815 42.56C21.7815 42.56 25.4117 42.363 31.1353 39.5763C33.3877 43.2918 38.3693 50.9763 43.2715 55.5081C48.9686 60.8 55.4606 57.6756 58.6404 55.3111Z" fill="#C5DFFF"/>
<path d="M32.1952 41.2933C27.4786 43.517 24.2193 44.0237 22.5764 44.1081C22.0464 43.1511 21.755 42.56 21.755 42.56C21.755 42.56 25.3852 42.363 31.1088 39.5763C31.4268 40.083 31.7978 40.6741 32.1952 41.2933Z" fill="#142966"/>
<path d="M58.1634 51.2859C57.501 48.3867 56.6 44.7274 55.4606 40.843C53.6323 34.5378 51.5654 29.6681 50.426 27.557C52.0159 24.9956 52.3073 23.9541 52.3073 23.9541C52.3073 23.9541 52.7048 24.7422 53.3938 26.4311C54.7414 29.9331 55.9003 33.5137 56.865 37.1556C58.4019 42.6726 58.8259 47.5704 58.1634 51.2859Z" fill="#F8FBFF"/>
<path d="M52.8108 22.1807C52.0629 23.7402 51.2037 25.2364 50.2405 26.6563C49.8165 25.7837 49.4455 25.0237 49.1011 24.4044C51.1414 21.1393 51.4329 19 51.4329 19C51.4329 19 51.9629 20.0415 52.8108 22.1807Z" fill="#384D89"/>
<path d="M44.5169 53.6504C44.5169 53.6504 42.1321 55.5644 37.2829 57.7037C35.9315 58.2948 34.6066 58.8015 33.4142 59.2237L33.0962 58.8859C29.7044 55.4237 26.6572 50.9481 24.5903 47.5704C24.4578 47.3733 24.3518 47.1763 24.2458 47.0074C27.0129 46.2167 29.7156 45.1907 32.3278 43.9393C36.8059 41.8281 37.9454 40.8711 37.9454 40.8711L44.5169 53.6504Z" fill="#E1ECFF"/>
<path d="M43.775 53.6222C43.775 53.6222 41.6286 55.4518 37.0709 57.3659C35.6665 57.957 34.2621 58.4637 33.0697 58.8859C29.6779 55.4237 26.6307 50.9481 24.5638 47.5704L24.9878 47.4578C27.5425 46.7115 30.0404 45.7611 32.4603 44.6148C36.594 42.6444 37.7599 41.997 37.7599 41.997L43.775 53.6222Z" fill="#1C3177"/>
<path d="M31.9565 54.72C31.8702 54.7222 31.7859 54.6923 31.7181 54.6356L28.8033 51.877L28.6178 52.4681C28.603 52.515 28.5794 52.5582 28.5485 52.5951C28.5176 52.632 28.4799 52.6619 28.4378 52.683C28.3957 52.704 28.3501 52.7158 28.3036 52.7176C28.2571 52.7193 28.2107 52.7111 28.1673 52.6933C28.1232 52.6776 28.0825 52.6526 28.0478 52.6197C28.013 52.5869 27.9849 52.5469 27.9651 52.5022C27.9453 52.4575 27.9342 52.4089 27.9325 52.3596C27.9308 52.3102 27.9386 52.2609 27.9553 52.2148L28.3263 51.0889C28.3475 51.0315 28.3796 50.9794 28.4207 50.9358C28.4617 50.8922 28.5108 50.8581 28.5648 50.8355C28.6245 50.8223 28.6863 50.823 28.7458 50.8376C28.8052 50.8522 28.861 50.8803 28.9093 50.92L31.4796 53.3407L31.3471 52.243C31.3316 52.1611 31.3445 52.0761 31.3835 52.0037C31.4225 51.9312 31.4849 51.8762 31.5591 51.8489L40.33 47.8237C40.3734 47.803 40.4203 47.7917 40.4679 47.7904C40.5155 47.7891 40.5629 47.7979 40.6073 47.8162C40.6516 47.8346 40.6921 47.8621 40.7264 47.8972C40.7607 47.9323 40.7881 47.9743 40.8069 48.0207C40.8264 48.0669 40.8371 48.1167 40.8383 48.1673C40.8395 48.2178 40.8312 48.2681 40.814 48.3153C40.7967 48.3624 40.7708 48.4055 40.7378 48.4419C40.7047 48.4783 40.6652 48.5074 40.6214 48.5274L32.089 52.44L32.3275 54.2696C32.3393 54.3477 32.3277 54.4276 32.2944 54.4983C32.2611 54.569 32.2079 54.6269 32.142 54.6637C32.0831 54.6918 32.0206 54.7108 31.9565 54.72Z" fill="#FFCE94"/>
<path d="M51.4329 19.0281C51.4329 19.0281 51.0355 22.04 47.9882 26.2341C46.2393 28.6548 43.5895 31.4696 39.6148 34.3407C33.0962 39.0696 27.9556 41.0682 24.8818 41.9407C23.8601 42.251 22.8132 42.4583 21.755 42.56C21.755 42.56 15.104 30.5126 16.1904 19.5911C16.4819 16.7481 17.3033 14.3837 18.5487 12.4415C19.4336 11.0425 20.5463 9.82246 21.8345 8.83852C25.5177 6.0237 30.4729 5.03852 35.2956 5.65778C44.0929 6.81185 51.4329 19.0281 51.4329 19.0281Z" fill="#FEC272"/>
<path d="M51.4329 19.0282C51.4329 19.0282 51.2474 20.3793 50.2405 22.5185C49.6087 23.8429 48.8542 25.097 47.9881 26.2622C46.2393 28.683 43.5895 31.4978 39.6147 34.3689C32.5927 39.4356 27.1606 41.3778 24.2193 42.1378C23.4097 42.3537 22.5859 42.5043 21.755 42.5882C21.755 42.5037 21.7815 36.0296 31.6918 27.8104C41.6551 19.5067 51.4329 19.0282 51.4329 19.0282Z" fill="#FCAD4F"/>
<path d="M50.2405 22.5185C49.6087 23.8428 48.8542 25.097 47.9882 26.2622C46.2393 28.683 43.5895 31.4978 39.6148 34.3689C32.5927 39.4356 27.1606 41.3778 24.2193 42.1378C25.3322 39.4356 27.7701 35.4385 33.2552 30.8785C38.2175 26.7087 44.0376 23.8441 50.2405 22.5185V22.5185Z" fill="#F99D3A"/>
<path d="M51.4329 19.0281C51.4329 19.0281 51.0355 22.04 47.9882 26.2341C47.0377 24.4729 45.9661 22.7888 44.7819 21.1956C44.7819 21.1956 40.8867 24.9393 37.7069 22.2652C34.5271 19.563 36.9119 14.6089 36.9119 14.6089C34.5832 12.1917 31.6645 10.5147 28.4855 9.76741C26.2869 9.26697 24.0538 8.95633 21.808 8.83852C25.4912 6.0237 30.4464 5.03852 35.2691 5.65778C44.0929 6.81185 51.4329 19.0281 51.4329 19.0281Z" fill="#FFDBB3"/>
<path d="M24.9083 41.9407C23.8866 42.251 22.8397 42.4583 21.7815 42.56C21.7815 42.56 15.1305 30.5126 16.2169 19.5911C16.5084 16.7481 17.3298 14.3837 18.5752 12.4415C18.0517 18.7813 18.6998 25.1687 20.4831 31.2444C21.6035 34.9638 23.0867 38.5487 24.9083 41.9407Z" fill="#FFDBB3"/>
<path d="M55.1692 90.9748C55.1729 91.1535 55.164 91.3323 55.1427 91.5096C55.0367 93.1704 50.2405 93.48 46.9018 93.6489C43.616 93.8178 40.1447 92.8326 41.3371 91.6785L41.3901 91.6222C42.2381 90.8622 43.881 89.9896 45.7093 89.2859C46.7665 88.8707 47.846 88.523 48.9421 88.2445C50.373 87.8785 53.2878 87.1467 54.2417 87.9067C54.4408 88.0742 54.6035 88.2855 54.7187 88.5259C55.0439 89.2947 55.198 90.1326 55.1692 90.9748Z" fill="#1C3177"/>
<path d="M55.1692 90.9748C55.1729 91.1535 55.164 91.3323 55.1427 91.5096C55.0367 93.1704 50.2405 93.48 46.9018 93.6489C43.616 93.8178 40.1447 92.8326 41.3371 91.6785C42.0526 92.1289 43.616 92.6637 46.8753 92.523C51.3269 92.3259 54.0298 91.5378 55.1692 90.9748Z" fill="#384D89"/>
<path d="M54.6919 88.5259C54.4043 88.796 54.0834 89.0233 53.738 89.2015C52.4661 89.877 48.5974 90.6089 46.239 90.1867C45.2056 89.9896 45.2851 89.6519 45.6826 89.2859C46.7397 88.8707 47.8192 88.523 48.9153 88.2445C50.3462 87.8785 53.261 87.1467 54.215 87.9067C54.4141 88.0742 54.5768 88.2855 54.6919 88.5259Z" fill="#142966"/>
<path d="M48.7301 75.0148C49.7901 82.2207 53.6588 87.7378 53.6588 87.7378C53.3502 88.1614 52.9734 88.5235 52.5459 88.8074C52.1895 89.0446 51.8068 89.2337 51.4064 89.3704C50.7336 89.564 50.0324 89.6213 49.3396 89.5393C48.8924 89.492 48.4493 89.4073 48.0147 89.2859C48.0147 89.2859 41.4166 80.2504 40.5952 69.9481C39.7737 59.6459 44.9939 54.4667 44.9939 54.4667C45.0329 54.4441 45.0686 54.4157 45.0999 54.3822C45.9515 53.8248 46.9312 53.5272 47.9315 53.5223C48.9318 53.5173 49.914 53.8051 50.7705 54.3541C50.9631 54.4633 51.149 54.5855 51.3269 54.72C53.4733 56.2119 53.7913 57.7319 53.7913 57.7319C52.7887 58.7159 51.9312 59.8546 51.2475 61.1096C50.161 63.08 47.6702 67.8089 48.7301 75.0148Z" fill="#E1ECFF"/>
<path d="M48.7301 75.0148C49.7901 82.2207 53.6588 87.7378 53.6588 87.7378C53.3502 88.1614 52.9734 88.5235 52.5459 88.8074C50.6115 85.9644 45.9743 77.3511 46.1333 69.16C46.2658 61.6726 49.9225 56.4652 51.3534 54.72C53.4998 56.2119 53.8178 57.7319 53.8178 57.7319C52.8152 58.7159 51.9577 59.8546 51.274 61.1096C50.161 63.08 47.6702 67.8089 48.7301 75.0148Z" fill="#C5DFFF"/>
<path d="M49.3131 89.5111C48.8659 89.4639 48.4228 89.3792 47.9882 89.2578C47.9882 89.2578 41.3901 80.2222 40.5687 69.92C39.7472 59.6178 44.9674 54.4385 44.9674 54.4385C45.0064 54.416 45.0421 54.3875 45.0734 54.3541C44.0664 56.5496 41.8141 62.2356 42.0261 68.6533C42.2911 76.9007 45.6563 83.2622 48.0147 87.3156C48.4651 88.1319 48.9156 88.8637 49.3131 89.5111Z" fill="#F8FBFF"/>
<path d="M44.2785 82.1926C44.2332 82.1951 44.188 82.1862 44.1465 82.1667C44.1051 82.1471 44.0686 82.1174 44.04 82.08C43.9729 82.0108 43.933 81.9173 43.9281 81.8181C43.9232 81.719 43.9537 81.6215 44.0135 81.5452C44.6782 80.8975 45.477 80.425 46.3453 80.1659C47.9087 79.6593 49.6311 80.2222 49.7106 80.2504C49.8007 80.2821 49.8758 80.3496 49.9202 80.4388C49.9647 80.5279 49.975 80.6319 49.9491 80.7289C49.9192 80.8246 49.8556 80.9044 49.7717 80.9516C49.6878 80.9988 49.59 81.0098 49.4986 80.9822C49.4721 80.9822 47.9087 80.4756 46.5573 80.8978C45.2059 81.3482 44.5434 82.0519 44.5434 82.08C44.5112 82.1202 44.4702 82.1514 44.424 82.171C44.3779 82.1906 44.3279 82.198 44.2785 82.1926Z" fill="#C5DFFF"/>
<path d="M41.5481 73.1852C41.483 73.1875 41.4186 73.1702 41.3624 73.1353C41.3061 73.1005 41.2603 73.0495 41.2301 72.9882C41.204 72.9443 41.1867 72.8952 41.1792 72.8439C41.1718 72.7926 41.1743 72.7403 41.1868 72.6901C41.1992 72.6399 41.2212 72.593 41.2515 72.5523C41.2817 72.5115 41.3196 72.4779 41.3626 72.4533C42.4091 71.8456 43.5652 71.481 44.7544 71.3837C45.9508 71.3506 47.1272 71.7147 48.1196 72.4252C48.1593 72.4536 48.1931 72.4903 48.2188 72.5331C48.2445 72.576 48.2616 72.624 48.2691 72.6742C48.2766 72.7244 48.2742 72.7757 48.2622 72.8248C48.2501 72.874 48.2287 72.92 48.1991 72.96C48.1724 73.0022 48.1378 73.038 48.0975 73.0653C48.0572 73.0927 48.012 73.1108 47.9647 73.1188C47.9175 73.1267 47.8692 73.1242 47.8229 73.1114C47.7766 73.0986 47.7333 73.0758 47.6957 73.0445C47.6692 73.0445 46.3443 72.0593 44.7809 72.1437C43.7009 72.2301 42.6518 72.5663 41.7071 73.1289C41.6806 73.1852 41.6011 73.1852 41.5481 73.1852Z" fill="#C5DFFF"/>
<path d="M48.8097 65.753C48.7644 65.7555 48.7191 65.7466 48.6777 65.727C48.6363 65.7075 48.5998 65.6778 48.5712 65.6404C48.5447 65.6122 46.5838 63.7263 44.6229 63.473C42.7151 63.2196 41.5492 64.0922 41.5492 64.1204C41.471 64.1773 41.3752 64.2002 41.2816 64.1845C41.188 64.1688 41.1036 64.1157 41.0457 64.0359C40.9921 63.9529 40.9705 63.8512 40.9853 63.7517C41.0001 63.6523 41.0501 63.5626 41.1252 63.5011C41.1782 63.4448 42.5296 62.4033 44.7289 62.713C46.9018 63.0226 48.9686 64.993 49.0746 65.0774C49.1109 65.1097 49.1405 65.1495 49.1616 65.1945C49.1828 65.2394 49.1949 65.2885 49.1974 65.3387C49.1999 65.3889 49.1926 65.439 49.1761 65.4861C49.1595 65.5332 49.134 65.5761 49.1011 65.6122C49.019 65.6883 48.9177 65.7373 48.8097 65.753Z" fill="#C5DFFF"/>
<path d="M71.9428 57.76C71.5624 58.9512 70.8276 59.9786 69.8494 60.6874C68.2595 61.7852 67.3586 61.8978 67.3586 61.8978C67.3586 61.8978 66.3252 61.7289 66.3252 61.0252V60.9407C66.3901 60.419 66.5819 59.9242 66.8816 59.5052C67.5998 59.3724 68.3019 59.1553 68.975 58.8578C69.7169 58.4637 70.5119 57.197 71.0948 57.0563C71.2151 57.0331 71.3391 57.0473 71.452 57.0972C71.5648 57.1472 71.6616 57.2307 71.7308 57.3378C71.8284 57.4613 71.9006 57.6051 71.9428 57.76Z" fill="#E1ECFF"/>
<path d="M71.9428 57.76C71.5624 58.9512 70.8276 59.9786 69.8494 60.6874C68.2595 61.7852 67.3586 61.8978 67.3586 61.8978C67.3586 61.8978 66.3252 61.7289 66.3252 61.0252C67.0406 60.9689 68.7365 60.7437 69.9289 59.7304C70.7003 59.0851 71.3176 58.2557 71.7308 57.3096C71.8264 57.445 71.8982 57.5976 71.9428 57.76Z" fill="#C5DFFF"/>
<path d="M70.9624 57.6193C70.2343 58.6852 69.2032 59.4746 68.0211 59.8711C67.5417 60.0728 67.0217 60.1407 66.5107 60.0682C66.3764 59.9303 66.2714 59.7636 66.2029 59.5791C66.1343 59.3946 66.1037 59.1966 66.1132 58.9985C66.1397 58.6607 66.3517 58.2948 66.9081 57.957C66.9081 57.957 68.4185 57.76 69.3725 55.7896C70.3264 53.8193 69.9289 53.6222 70.1674 53.2282C70.3264 52.9467 70.9094 52.9748 71.3068 53.2282C71.5007 53.3436 71.6436 53.5359 71.7043 53.763C71.9428 54.4667 71.9163 56.24 70.9624 57.6193Z" fill="#E1ECFF"/>
<path d="M70.9624 57.6193C70.2343 58.6852 69.2032 59.4745 68.0211 59.8711C67.5417 60.0728 67.0217 60.1407 66.5107 60.0681C66.3764 59.9303 66.2714 59.7636 66.2029 59.5791C66.1343 59.3946 66.1037 59.1966 66.1132 58.9985C67.0936 58.9422 69.1075 58.6607 70.0879 57.1126C70.8205 55.9603 71.242 54.6169 71.3068 53.2281C71.5007 53.3436 71.6436 53.5359 71.7043 53.763C71.9428 54.4667 71.9163 56.24 70.9624 57.6193Z" fill="#C5DFFF"/>
<path d="M69.187 56.7467C68.4937 57.7643 67.508 58.5151 66.3782 58.8859C65.9227 59.0715 65.43 59.1296 64.9473 59.0548C64.8201 58.9244 64.7211 58.7663 64.6571 58.5914C64.5931 58.4165 64.5655 58.2288 64.5763 58.0415C64.6028 57.7319 64.8148 57.3659 65.3447 57.0563C65.3447 57.0563 66.7756 56.8874 67.6766 55.0015C68.5775 53.1437 68.2065 52.9467 68.4185 52.5526C68.5775 52.2993 69.1075 52.2993 69.505 52.5526C69.6905 52.6652 69.8316 52.8451 69.9024 53.0593C70.1144 53.763 70.0879 55.4519 69.187 56.7467Z" fill="#E1ECFF"/>
<path d="M69.187 56.7467C68.4937 57.7643 67.508 58.5151 66.3782 58.8859C65.9227 59.0715 65.43 59.1296 64.9473 59.0548C64.8201 58.9244 64.7211 58.7663 64.6571 58.5914C64.5931 58.4165 64.5655 58.2288 64.5763 58.0415C65.5037 57.9852 67.4116 57.7319 68.3655 56.2681C69.0507 55.1683 69.4527 53.897 69.5314 52.5807C69.717 52.6934 69.8581 52.8732 69.9289 53.0874C70.0454 53.7189 70.0397 54.369 69.9121 54.9981C69.7846 55.6272 69.5378 56.2221 69.187 56.7467Z" fill="#C5DFFF"/>
<path d="M68.4715 59.2519C68.4932 59.9394 68.3663 60.623 68.1005 61.2504C67.9464 61.6102 67.7408 61.9425 67.4911 62.2356C67.4911 62.2356 60.7871 64.7407 53.7385 58.4919C50.1083 55.283 47.1935 51.0889 45.2326 47.7956C44.1751 46.0337 43.2109 44.2106 42.3443 42.3348C42.3443 42.3348 41.7879 40.5052 42.8213 38.9289C43.209 38.3322 43.7396 37.8561 44.3582 37.5496C45.6036 36.8741 46.637 36.8178 47.4585 37.043C48.3011 37.2788 49.0522 37.791 49.6048 38.5067C49.6048 38.5067 50.6383 40.9274 52.1752 43.9111C53.977 47.3733 56.4679 51.5956 58.8527 53.5659C63.2779 57.2252 66.9611 55.8178 66.9611 55.8178C67.2569 56.1472 67.5231 56.5053 67.7561 56.8874C68.0476 57.4785 68.445 58.323 68.4715 59.2519Z" fill="#E1ECFF"/>
<path d="M52.0954 43.8548C51.2349 45.2906 49.9481 46.3802 48.4386 46.9511C47.3927 47.3812 46.296 47.6559 45.1794 47.7674C44.1219 46.0056 43.1576 44.1825 42.2911 42.3067C42.2911 42.3067 41.3371 39.1259 44.2784 37.4933C47.5907 35.6637 49.5251 38.4504 49.5251 38.4504C49.5251 38.4504 50.5585 40.8993 52.0954 43.8548Z" fill="#C5DFFF"/>
<path d="M68.0741 61.2222C67.92 61.582 67.7144 61.9143 67.4646 62.2074C67.4646 62.2074 60.7606 64.7126 53.7121 58.4637C50.0818 55.2548 47.167 51.0607 45.2062 47.7674C44.1487 46.0056 43.1844 44.1825 42.3179 42.3067C42.3179 42.3067 41.7614 40.477 42.7948 38.9007C43.6693 41.0119 47.4055 49.6252 52.1487 54.5793C57.5808 60.237 60.5221 60.9407 65.7422 61.1659C66.5902 61.1941 67.3851 61.2222 68.0741 61.2222Z" fill="#C5DFFF"/>
<path d="M67.6763 56.8593C66.3249 57.2815 64.4435 57.5911 62.4827 56.9437C58.8259 55.7333 55.8316 53.2844 52.8903 48.5837C50.479 44.6993 48.1472 38.957 47.4052 37.0148C48.2478 37.2506 48.999 37.7628 49.5516 38.4785C49.5516 38.4785 50.585 40.8993 52.1219 43.883C53.9238 47.3452 56.4146 51.5674 58.7994 53.5378C63.2246 57.197 66.9079 55.7896 66.9079 55.7896C67.1978 56.1173 67.4553 56.4757 67.6763 56.8593Z" fill="#F8FBFF"/>
<path d="M49.3128 52.44C48.9361 52.4414 48.5612 52.3845 48.1999 52.2711C48.11 52.2327 48.0379 52.1582 47.9992 52.0638C47.9605 51.9694 47.9583 51.8627 47.9931 51.7666C48.0279 51.6705 48.0969 51.5928 48.1852 51.5502C48.2734 51.5077 48.3739 51.5038 48.4649 51.5393C48.5179 51.5674 49.7633 52.0178 51.4327 51.0607C52.4283 50.469 53.1692 49.4903 53.4995 48.3304C53.51 48.2823 53.5292 48.2369 53.5562 48.1968C53.5831 48.1566 53.6173 48.1225 53.6566 48.0964C53.696 48.0702 53.7398 48.0526 53.7856 48.0444C53.8314 48.0363 53.8783 48.0378 53.9235 48.0489C53.9687 48.06 54.0115 48.0804 54.0493 48.1091C54.0871 48.1377 54.1192 48.174 54.1438 48.2158C54.1684 48.2576 54.185 48.3042 54.1927 48.3528C54.2003 48.4014 54.1989 48.4512 54.1885 48.4993C54.0065 49.1846 53.697 49.8241 53.2783 50.3801C52.8596 50.9362 52.3401 51.3973 51.7507 51.7363C51.0099 52.1932 50.1694 52.4359 49.3128 52.44Z" fill="#C5DFFF"/>
<path d="M54.3742 58.7452C54.2758 58.7452 54.1815 58.7037 54.1119 58.6298C54.0423 58.5559 54.0033 58.4556 54.0033 58.3511C54.0033 58.2466 54.0423 58.1464 54.1119 58.0725C54.1815 57.9986 54.2758 57.957 54.3742 57.957C54.4007 57.957 56.0436 57.9289 56.9711 56.7185C57.925 55.48 57.7395 53.7348 57.7395 53.7067C57.7342 53.6568 57.7383 53.6062 57.7514 53.558C57.7646 53.5097 57.7865 53.4647 57.8161 53.4255C57.8456 53.3863 57.8821 53.3536 57.9235 53.3294C57.965 53.3052 58.0105 53.2899 58.0575 53.2844C58.1515 53.2775 58.2446 53.3084 58.3183 53.371C58.3919 53.4335 58.4407 53.5232 58.455 53.6222C58.455 53.7067 58.6669 55.7052 57.5275 57.197C56.3881 58.7452 54.4537 58.7452 54.3742 58.7452Z" fill="#C5DFFF"/>
<path d="M60.2036 62.0385C60.1286 62.039 60.0553 62.0149 59.9937 61.9696C59.9321 61.9243 59.8851 61.8599 59.8591 61.7852C59.8245 61.6881 59.8273 61.5804 59.867 61.4855C59.9067 61.3907 59.98 61.3163 60.0711 61.2785C60.5356 61.0616 60.9483 60.7365 61.2786 60.3272C61.6088 59.9179 61.8482 59.4349 61.9789 58.9141C62.3764 57.1689 61.82 56.1556 61.7935 56.1274C61.7442 56.0406 61.7277 55.9371 61.7473 55.8378C61.767 55.7386 61.8214 55.651 61.8995 55.5926C61.9812 55.5402 62.0786 55.5227 62.172 55.5436C62.2655 55.5645 62.348 55.6222 62.4029 55.7052C62.4294 55.7615 63.1714 57.0281 62.6679 59.083C62.5062 59.7239 62.21 60.3176 61.8016 60.8197C61.3932 61.3218 60.8831 61.7193 60.3096 61.9822C60.2831 62.0385 60.2566 62.0385 60.2036 62.0385Z" fill="#C5DFFF"/>
<path d="M52.3066 40.477C52.2519 40.7658 52.1721 41.0485 52.0681 41.3215C51.6971 42.2785 50.8227 43.8548 48.8353 45.2341C45.7615 47.3452 43.0322 46.4444 43.0322 46.4444C41.7583 44.514 40.9486 42.2816 40.6739 39.9422C40.4354 37.7748 41.7868 36.0859 43.5357 35.2696C44.8341 34.6785 46.3445 34.5659 47.5634 35.1289C50.4517 36.5081 52.3066 40.477 52.3066 40.477Z" fill="#1C3177"/>
<path d="M52.3076 40.477C52.253 40.7658 52.1732 41.0485 52.0692 41.3215C52.0692 41.2933 52.0427 41.2933 52.0427 41.2652C49.5783 37.803 47.644 37.0993 47.644 37.0993C47.644 37.0993 46.9285 38.9007 44.5702 37.8593C42.9273 37.1556 43.2188 35.917 43.5632 35.2696C44.8617 34.6785 46.3721 34.5659 47.591 35.1289C50.4528 36.5081 52.3076 40.477 52.3076 40.477Z" fill="#384D89"/>
<path d="M20.1118 25.5867C19.8738 25.5438 19.6294 25.5984 19.4277 25.7394C19.2261 25.8805 19.0823 26.0975 19.0254 26.3467C18.7017 27.7677 18.4453 29.2051 18.2569 30.6533C18.1245 31.8356 18.0715 32.8207 18.045 33.4963C18.0381 33.7348 18.1118 33.9681 18.2528 34.1539C18.3937 34.3398 18.5926 34.4659 18.8134 34.5096C18.9375 34.5306 19.0643 34.5243 19.186 34.4911C19.3078 34.458 19.4218 34.3987 19.5211 34.317C19.6204 34.2352 19.7029 34.1327 19.7635 34.0157C19.8241 33.8988 19.8615 33.7699 19.8733 33.637C19.9545 32.3886 20.1138 31.1474 20.3503 29.9215C20.6153 28.4859 20.8008 27.4726 20.9333 26.797C20.9671 26.5221 20.901 26.2438 20.7483 26.0189C20.5957 25.794 20.3681 25.6394 20.1118 25.5867Z" fill="#1C3177"/>
<path d="M15.5279 28.5985C15.5554 28.4662 15.6107 28.3421 15.6895 28.2356C15.7684 28.1291 15.8689 28.0429 15.9835 27.9834C16.0981 27.9238 16.2239 27.8926 16.3515 27.8919C16.4791 27.8911 16.6051 27.921 16.7203 27.9793C17.5153 28.3452 18.6812 28.88 19.7941 29.3022C20.9336 29.7244 21.9935 30.1467 22.6559 30.4281C22.8731 30.5144 23.0526 30.6827 23.1602 30.9009C23.2678 31.119 23.2958 31.3716 23.2389 31.6104C23.2078 31.7391 23.1526 31.8599 23.0766 31.9656C23.0006 32.0712 22.9054 32.1595 22.7966 32.2251C22.6878 32.2908 22.5676 32.3325 22.4433 32.3478C22.319 32.3631 22.193 32.3516 22.073 32.3141C20.8111 31.9351 19.5722 31.4744 18.3632 30.9348C17.5058 30.554 16.6736 30.112 15.8724 29.6118C15.7286 29.4967 15.6194 29.3396 15.5582 29.1596C15.497 28.9797 15.4865 28.7847 15.5279 28.5985Z" fill="#1C3177"/>
<path d="M31.5053 18.718C31.1942 18.671 30.8773 18.7456 30.6173 18.9269C30.3572 19.1083 30.1729 19.3833 30.1009 19.6975C29.8094 21.0578 29.3854 23.343 29.1999 25.1386C29.0674 26.635 28.9879 27.8592 28.9879 28.7026C28.9767 28.9989 29.0737 29.2888 29.26 29.5153C29.4464 29.7419 29.7085 29.8887 29.9949 29.9269C30.1561 29.9523 30.3206 29.943 30.4781 29.8995C30.6356 29.8561 30.7826 29.7795 30.9097 29.6746C31.0368 29.5697 31.1413 29.4388 31.2164 29.2902C31.2916 29.1416 31.3358 28.9785 31.3463 28.8114C31.3993 27.7232 31.5583 26.0636 31.8497 24.1592C32.1412 22.3364 32.3797 21.0578 32.5122 20.2144C32.548 20.0477 32.55 19.8753 32.518 19.7078C32.486 19.5403 32.4207 19.3814 32.3262 19.241C32.2317 19.1006 32.1101 18.9817 31.9688 18.8917C31.8276 18.8017 31.6698 18.7426 31.5053 18.718Z" fill="#1C3177"/>
<path d="M25.6229 22.6357C25.66 22.4711 25.7315 22.3167 25.8325 22.1833C25.9334 22.0498 26.0614 21.9405 26.2076 21.8629C26.3538 21.7852 26.5146 21.7412 26.6791 21.7337C26.8435 21.7262 27.0075 21.7555 27.1598 21.8195C28.1932 22.2548 29.7036 22.8805 31.161 23.3975C32.6449 23.9144 34.0228 24.4041 34.8973 24.7305C35.181 24.8325 35.4173 25.0398 35.5596 25.3118C35.7018 25.5837 35.7397 25.9005 35.6657 26.1997C35.6273 26.3632 35.5575 26.5171 35.4603 26.6526C35.3632 26.788 35.2406 26.9021 35.1 26.9883C34.9593 27.0744 34.8033 27.1309 34.641 27.1543C34.4788 27.1777 34.3137 27.1676 34.1553 27.1247C32.5156 26.6864 30.9047 26.1412 29.3326 25.4923C28.2138 25.0496 27.1325 24.5127 26.0999 23.8872C25.9138 23.7457 25.7704 23.5532 25.686 23.3319C25.6016 23.1105 25.5798 22.8692 25.6229 22.6357Z" fill="#1C3177"/>
<path d="M121.203 72.5096C122.1 72.8301 122.903 73.3927 123.534 74.1422C124.515 75.3807 124.647 77.3793 124.647 77.3793L130 74.7333C130 74.7333 127.297 75.8311 126.396 73.917C125.495 72.003 128.49 68.963 128.49 68.963C128.49 68.963 125.177 71.8341 123.879 71.4118C122.581 70.9896 122.369 69.2726 122.369 69.2726L121.203 72.5096Z" fill="#FEC272"/>
<path d="M116.141 71.8622L117.095 71.8904L118.579 60.3496L115.214 59.6741L116.141 71.8622Z" fill="#D2E9FF"/>
<path d="M118.473 71.9185L120.699 61.1096L123.905 62.7704L119.056 72.2L118.473 71.9185Z" fill="#D2E9FF"/>
<path d="M12.4276 17.3674L11.8712 18.6622L0.238483 14.8622L1.80188 9.99259L12.4276 17.3674Z" fill="#FEC272"/>
<path d="M14.1765 13.0889L13.1431 14.6652L0 4.02519L3.63025 0L14.1765 13.0889Z" fill="#FEC272"/>
</g>
<defs>
<clipPath id="clip0_141_613">
<rect width="130" height="95" fill="white"/>
</clipPath>
</defs>
</svg>
