<svg width="203" height="95" viewBox="0 0 203 95" fill="none" xmlns="http://www.w3.org/2000/svg">
<g clip-path="url(#clip0_141_533)">
<path d="M62.2884 85.8066C62.2884 80.7808 79.6198 76.654 100.982 76.654C122.344 76.654 139.675 80.7808 139.675 85.8474C139.668 86.421 139.464 86.9781 139.093 87.441C135.868 91.7312 120.015 95 100.982 95C79.6198 95 62.2884 90.8732 62.2884 85.8066Z" fill="#7A97F4"/>
<path d="M54.5855 79.5551H17.3253C16.3704 79.5571 15.4424 79.8441 14.683 80.3722L0.352145 90.628C0.203658 90.7318 0.0943702 90.8753 0.0395145 91.0385C-0.0153412 91.2016 -0.0130306 91.3764 0.0461242 91.5383C0.105279 91.7002 0.21833 91.8412 0.369519 91.9417C0.520707 92.0422 0.702499 92.0972 0.889553 92.099H40.2547C41.2532 92.09 42.2119 91.7402 42.9417 91.1183L54.9886 80.4948C55.0763 80.4209 55.1376 80.3245 55.1644 80.2183C55.1911 80.112 55.1822 80.0009 55.1386 79.8994C55.0951 79.7979 55.019 79.7108 54.9203 79.6493C54.8217 79.5879 54.705 79.555 54.5855 79.5551Z" fill="#7AABF4"/>
<path d="M202.417 79.5551H165.112C164.157 79.5571 163.23 79.8441 162.47 80.3723L148.139 90.628C147.991 90.7318 147.881 90.8753 147.827 91.0385C147.772 91.2017 147.774 91.3764 147.833 91.5383C147.892 91.7002 148.005 91.8412 148.157 91.9417C148.308 92.0423 148.49 92.0972 148.677 92.099H188.042C189.04 92.09 189.999 91.7402 190.729 91.1183L202.776 80.4948C202.871 80.4277 202.941 80.3348 202.976 80.2293C203.011 80.1238 203.008 80.011 202.968 79.907C202.928 79.803 202.854 79.7131 202.755 79.6499C202.656 79.5867 202.538 79.5535 202.417 79.5551Z" fill="#7AABF4"/>
<path d="M62.2884 84.1313C62.2884 79.1056 79.6198 74.9788 100.982 74.9788C122.344 74.9788 139.675 79.1056 139.675 84.1722C139.668 84.7457 139.464 85.3028 139.093 85.7657C135.868 90.056 120.015 93.3248 100.982 93.3248C79.6198 93.3248 62.2884 89.1979 62.2884 84.1313Z" fill="#E1ECFF"/>
<path d="M139.093 85.7657C135.868 90.056 120.06 93.3248 100.982 93.3248C79.6198 93.3248 62.2884 89.1979 62.2884 84.1313C62.2884 84.1313 69.006 91.5269 99.6382 91.5269C125.971 91.5678 136.585 87.0324 139.093 85.7657Z" fill="#C2D1FF"/>
<path d="M123.015 82.0066C121.538 80.5357 112.222 79.3916 100.982 79.3916C89.2483 79.3916 79.6645 80.6174 78.8136 82.1701C79.2167 81.2712 81.9037 78.1658 100.982 78.1658C118.537 78.1658 122.254 80.9443 123.015 82.0066Z" fill="#C2D1FF"/>
<path d="M54.899 79.5551L47.0618 28.3988C47.0186 28.1354 46.8723 27.8951 46.6501 27.7224C46.4278 27.5496 46.1446 27.4561 45.8526 27.4591H35.2836C35.1095 27.46 34.9376 27.4947 34.7793 27.561C34.621 27.6272 34.48 27.7235 34.3656 27.8433C34.2512 27.9631 34.1661 28.1038 34.1159 28.2559C34.0657 28.408 34.0516 28.5682 34.0745 28.7257L36.7167 48.0523C36.7423 48.2318 36.7255 48.4143 36.6673 48.5873C36.609 48.7604 36.5109 48.9201 36.3793 49.0556C36.2477 49.1911 36.0859 49.2993 35.9046 49.373C35.7233 49.4466 35.5268 49.4839 35.3284 49.4824H23.2367C22.8712 49.4845 22.5187 49.3585 22.2521 49.1304C21.9854 48.9023 21.8249 48.5895 21.8037 48.2566L20.8184 28.5623C20.8031 28.278 20.6695 28.0097 20.4448 27.8123C20.2201 27.6148 19.9212 27.5031 19.6092 27.4999H9.71199C9.54847 27.4969 9.38603 27.5248 9.23486 27.5818C9.0837 27.6387 8.94707 27.7236 8.83354 27.831C8.72001 27.9384 8.63203 28.0661 8.57512 28.206C8.51821 28.3459 8.4936 28.495 8.50282 28.644L9.84634 62.3123C9.87348 62.8277 10.1161 63.3141 10.5243 63.6713C10.9325 64.0285 11.4752 64.2294 12.0408 64.2327H38.9559L41.0608 79.6368H54.899V79.5551Z" fill="#273D7A"/>
<path d="M202.731 79.5551L194.894 28.3988C194.85 28.1354 194.704 27.8951 194.482 27.7224C194.26 27.5496 193.976 27.4561 193.685 27.4591H183.115C182.941 27.46 182.769 27.4947 182.611 27.561C182.453 27.6272 182.312 27.7235 182.197 27.8433C182.083 27.9631 181.998 28.1038 181.948 28.2559C181.898 28.408 181.883 28.5682 181.906 28.7257L184.549 48.0523C184.574 48.2318 184.557 48.4143 184.499 48.5873C184.441 48.7604 184.343 48.9201 184.211 49.0556C184.08 49.1911 183.918 49.2993 183.736 49.373C183.555 49.4466 183.359 49.4839 183.16 49.4824H171.069C170.703 49.4845 170.351 49.3585 170.084 49.1304C169.817 48.9023 169.657 48.5895 169.636 48.2566L168.65 28.5623C168.635 28.278 168.501 28.0097 168.277 27.8123C168.052 27.6148 167.753 27.5031 167.441 27.4999H157.589C157.425 27.4969 157.263 27.5248 157.112 27.5818C156.96 27.6387 156.824 27.7236 156.71 27.831C156.597 27.9384 156.509 28.0661 156.452 28.206C156.395 28.3459 156.37 28.495 156.379 28.644L157.723 62.3123C157.75 62.8277 157.993 63.3141 158.401 63.6713C158.809 64.0285 159.352 64.2294 159.917 64.2327H186.833L188.937 79.6368H202.731V79.5551Z" fill="#273D7A"/>
<path d="M46.7481 28.93L40.8366 90.056C40.7871 90.6109 40.5112 91.1288 40.0634 91.5071C39.6156 91.8854 39.0285 92.0966 38.4182 92.099H29.551C29.2061 92.099 28.8652 92.0322 28.5507 91.903C28.2362 91.7738 27.9554 91.5851 27.7268 91.3495C27.4982 91.1139 27.327 90.8367 27.2246 90.5362C27.1222 90.2358 27.0908 89.9189 27.1327 89.6065L30.8498 60.9639L4.29287 61.3725C3.94978 61.3778 3.60966 61.3138 3.2969 61.185C2.98414 61.0562 2.7065 60.8659 2.48389 60.6276C2.26129 60.3894 2.09924 60.1091 2.00937 59.807C1.9195 59.5049 1.90404 59.1883 1.9641 58.8801L2.05367 58.3489L8.14429 28.5623C8.22642 28.1614 8.45921 27.7993 8.80255 27.5382C9.1459 27.2772 9.57829 27.1336 10.0252 27.1322H18.4894C18.7666 27.1364 19.0396 27.1948 19.2899 27.3036C19.5402 27.4123 19.762 27.5688 19.9403 27.7625C20.1186 27.9561 20.2493 28.1825 20.3234 28.4262C20.3976 28.6699 20.4136 28.9253 20.3703 29.1751L16.7428 47.9706C16.7085 48.148 16.7177 48.3301 16.7697 48.5039C16.8218 48.6776 16.9155 48.8387 17.044 48.9754C17.1724 49.1122 17.3326 49.2213 17.5128 49.2948C17.6931 49.3683 17.8889 49.4045 18.0863 49.4007H30.7602L33.7159 28.5214C33.778 28.1271 33.9928 27.766 34.3214 27.5037C34.65 27.2414 35.0707 27.0951 35.5073 27.0913H44.9567C45.2067 27.1045 45.4515 27.1625 45.6769 27.2621C45.9023 27.3617 46.104 27.5009 46.2704 27.6717C46.4368 27.8425 46.5646 28.0415 46.6466 28.2574C46.7285 28.4733 46.763 28.7019 46.7481 28.93Z" fill="#E1ECFF"/>
<path d="M31.0287 58.3489L30.8048 60.9639L4.2479 61.3725C3.90481 61.3778 3.56469 61.3138 3.25193 61.185C2.93917 61.0562 2.66153 60.8659 2.43892 60.6276C2.21632 60.3894 2.05427 60.1091 1.9644 59.807C1.87453 59.5049 1.85907 59.1883 1.91913 58.8801L2.0087 58.3489H31.0287Z" fill="#C2D1FF"/>
<path d="M46.7479 28.93L40.8364 90.056C40.7869 90.6109 40.511 91.1288 40.0632 91.5071C39.6154 91.8854 39.0283 92.0966 38.4181 92.099H37.0745L44.1056 27.1322H44.9565C45.2054 27.1375 45.4506 27.1889 45.6771 27.2832C45.9036 27.3776 46.1068 27.5129 46.2743 27.681C46.4418 27.8491 46.5701 28.0465 46.6515 28.2612C46.7329 28.4759 46.7657 28.7034 46.7479 28.93Z" fill="#C2D1FF"/>
<path d="M16.6983 48.0114C16.664 48.1888 16.6731 48.371 16.7252 48.5447C16.7773 48.7185 16.8709 48.8795 16.9994 49.0163C17.1279 49.1531 17.2881 49.2622 17.4683 49.3357C17.6485 49.4092 17.8444 49.4454 18.0418 49.4415H15.4443C15.2203 49.4429 14.9986 49.3994 14.7949 49.3142C14.5912 49.229 14.4104 49.1041 14.2653 48.9483C14.1201 48.7925 14.0141 48.6096 13.9548 48.4125C13.8954 48.2153 13.8841 48.0087 13.9217 47.8071L17.9075 27.173H18.4897C18.7668 27.1772 19.0398 27.2357 19.2901 27.3444C19.5404 27.4532 19.7622 27.6097 19.9405 27.8033C20.1189 27.997 20.2495 28.2234 20.3237 28.4671C20.3979 28.7108 20.4139 28.9662 20.3706 29.216L16.6983 48.0114Z" fill="#C2D1FF"/>
<path d="M194.535 28.93L188.623 90.056C188.574 90.6109 188.298 91.1288 187.85 91.5071C187.403 91.8854 186.815 92.0966 186.205 92.099H177.338C176.993 92.099 176.652 92.0322 176.338 91.903C176.023 91.7738 175.742 91.5851 175.514 91.3495C175.285 91.1139 175.114 90.8367 175.011 90.5362C174.909 90.2358 174.878 89.9189 174.92 89.6065L178.637 60.9639L152.08 61.3725C151.737 61.3778 151.397 61.3138 151.084 61.185C150.771 61.0562 150.493 60.8659 150.271 60.6276C150.048 60.3894 149.886 60.1091 149.796 59.807C149.706 59.5049 149.691 59.1883 149.751 58.8801L149.841 58.3489L155.931 28.5623C156.013 28.1614 156.246 27.7993 156.589 27.5382C156.933 27.2772 157.365 27.1336 157.812 27.1322H166.276C166.553 27.1364 166.826 27.1948 167.077 27.3036C167.327 27.4123 167.549 27.5688 167.727 27.7625C167.905 27.9561 168.036 28.1825 168.11 28.4262C168.185 28.6699 168.201 28.9253 168.157 29.1751L164.53 47.9706C164.495 48.148 164.505 48.3301 164.557 48.5039C164.609 48.6776 164.702 48.8387 164.831 48.9754C164.959 49.1122 165.119 49.2213 165.3 49.2948C165.48 49.3683 165.676 49.4045 165.873 49.4007H178.547L181.503 28.5214C181.565 28.1271 181.78 27.766 182.108 27.5037C182.437 27.2414 182.858 27.0951 183.294 27.0913H192.744C192.996 27.0973 193.245 27.1505 193.474 27.2477C193.703 27.3449 193.908 27.4839 194.076 27.6563C194.244 27.8287 194.371 28.0306 194.45 28.2497C194.529 28.4688 194.558 28.7003 194.535 28.93Z" fill="#E1ECFF"/>
<path d="M178.861 58.3489L178.637 60.9639L152.08 61.3725C151.737 61.3778 151.397 61.3138 151.084 61.185C150.771 61.0562 150.493 60.8659 150.271 60.6276C150.048 60.3894 149.886 60.1091 149.796 59.807C149.706 59.5049 149.691 59.1883 149.751 58.8801L149.841 58.3489H178.861Z" fill="#C2D1FF"/>
<path d="M194.535 28.93L188.623 90.056C188.574 90.6109 188.298 91.1288 187.85 91.5071C187.402 91.8854 186.815 92.0966 186.205 92.099H184.862L191.893 27.1322H192.744C192.995 27.1303 193.244 27.1769 193.474 27.2688C193.704 27.3607 193.911 27.4959 194.08 27.6656C194.249 27.8353 194.377 28.0356 194.455 28.2535C194.534 28.4714 194.561 28.7019 194.535 28.93Z" fill="#C2D1FF"/>
<path d="M164.53 48.0114C164.496 48.1888 164.505 48.371 164.557 48.5447C164.609 48.7185 164.703 48.8795 164.831 49.0163C164.96 49.1531 165.12 49.2622 165.3 49.3357C165.48 49.4092 165.676 49.4454 165.874 49.4415H163.276C163.052 49.4429 162.83 49.3994 162.627 49.3142C162.423 49.229 162.242 49.1041 162.097 48.9483C161.952 48.7925 161.846 48.6096 161.787 48.4125C161.727 48.2153 161.716 48.0087 161.754 47.8071L165.739 27.173H166.322C166.599 27.1772 166.872 27.2357 167.122 27.3444C167.372 27.4532 167.594 27.6097 167.772 27.8033C167.951 27.997 168.081 28.2234 168.156 28.4671C168.23 28.7108 168.246 28.9662 168.202 29.216L164.53 48.0114Z" fill="#C2D1FF"/>
<path opacity="0.28" d="M83.2924 41.3909L74.1117 83.8849C73.6191 86.1731 75.2313 88.3386 77.4257 88.3386H126.061C128.211 88.3386 129.823 86.2548 129.42 84.0484L121.896 41.5544C121.583 39.8383 120.194 38.6125 118.537 38.6125H86.6512C85.039 38.5716 83.6507 39.7565 83.2924 41.3909Z" fill="#FEC272"/>
<path d="M124.762 44.0481L129.195 57.4909C129.213 57.5588 129.246 57.6223 129.294 57.677C129.341 57.7318 129.401 57.7763 129.469 57.8075C129.538 57.8387 129.613 57.8558 129.689 57.8575C129.766 57.8593 129.842 57.8457 129.912 57.8178C130.032 57.7749 130.131 57.6927 130.189 57.5869C130.247 57.4812 130.26 57.3596 130.225 57.2457L127.314 43.476C127.268 43.3024 127.182 43.1398 127.06 42.9994C126.939 42.8591 126.786 42.7443 126.612 42.6628C126.438 42.5814 126.246 42.5352 126.05 42.5274C125.855 42.5197 125.659 42.5506 125.478 42.618C125.19 42.7373 124.958 42.9478 124.826 43.2106C124.695 43.4735 124.672 43.7709 124.762 44.0481Z" fill="#FEC272"/>
<path d="M116.387 48.91L119.253 59.2883C119.263 59.3319 119.284 59.3732 119.312 59.4094C119.341 59.4457 119.377 59.4763 119.419 59.4993C119.461 59.5222 119.508 59.5371 119.556 59.543C119.605 59.5489 119.654 59.5456 119.701 59.5335C119.743 59.5234 119.781 59.5057 119.815 59.4816C119.849 59.4575 119.878 59.4273 119.899 59.393C119.919 59.3587 119.933 59.3209 119.937 59.2818C119.942 59.2428 119.937 59.2033 119.925 59.1657L118.089 48.5831C118.066 48.4638 118.015 48.3505 117.938 48.2518C117.861 48.153 117.761 48.0712 117.645 48.0124C117.529 47.9536 117.4 47.9193 117.268 47.912C117.135 47.9047 117.002 47.9246 116.88 47.9702C116.695 48.0549 116.546 48.1931 116.457 48.3632C116.368 48.5333 116.343 48.7257 116.387 48.91Z" fill="#FEC272"/>
<path d="M79.0371 45.3556L75.3201 55.6931C75.3067 55.7387 75.2824 55.781 75.249 55.817C75.2155 55.8531 75.1737 55.8819 75.1266 55.9014C75.0795 55.9209 75.0283 55.9307 74.9765 55.93C74.9248 55.9293 74.8739 55.9182 74.8274 55.8974C74.7438 55.8637 74.6756 55.8045 74.6347 55.7299C74.5938 55.6553 74.5828 55.57 74.6035 55.4888L77.2905 44.9061C77.3248 44.7893 77.3858 44.6805 77.4695 44.5868C77.5533 44.4931 77.6579 44.4167 77.7764 44.3626C77.8949 44.3086 78.0247 44.2781 78.1571 44.2731C78.2895 44.2682 78.4215 44.289 78.5445 44.3341C78.75 44.4192 78.9138 44.5705 79.0047 44.759C79.0956 44.9474 79.1071 45.1598 79.0371 45.3556Z" fill="#FEC272"/>
<path d="M86.4265 48.5422L81.5898 67.7462C81.5794 67.7899 81.5594 67.8311 81.5308 67.8674C81.5023 67.9037 81.466 67.9342 81.424 67.9572C81.382 67.9802 81.3354 67.9951 81.2869 68.0009C81.2384 68.0068 81.189 68.0036 81.142 67.9914C81.1004 67.9813 81.0614 67.9637 81.0275 67.9395C80.9935 67.9154 80.9653 67.8853 80.9443 67.8509C80.9234 67.8166 80.9103 67.7788 80.9058 67.7397C80.9013 67.7007 80.9055 67.6612 80.918 67.6237L84.7247 48.2153C84.7472 48.096 84.7987 47.9828 84.8755 47.884C84.9523 47.7853 85.0524 47.7035 85.1684 47.6447C85.2844 47.5859 85.4134 47.5516 85.5459 47.5443C85.6783 47.537 85.8109 47.5568 85.9338 47.6025C86.1343 47.6693 86.2981 47.8051 86.3902 47.9807C86.4822 48.1564 86.4953 48.3579 86.4265 48.5422Z" fill="#FEC272"/>
<path d="M96.682 50.7883L94.3532 64.7214C94.347 64.7669 94.3295 64.8106 94.302 64.849C94.2745 64.8875 94.2378 64.9198 94.1947 64.9434C94.1515 64.967 94.1031 64.9814 94.053 64.9854C94.0028 64.9894 93.9524 64.9829 93.9054 64.9665C93.8219 64.9416 93.75 64.8918 93.7013 64.8251C93.6526 64.7584 93.6298 64.6787 93.6367 64.5988L94.8906 50.5431C94.9102 50.4257 94.9575 50.3136 95.0294 50.2147C95.1013 50.1157 95.1959 50.0322 95.3067 49.9699C95.4175 49.9077 95.5419 49.8683 95.6711 49.8544C95.8004 49.8404 95.9314 49.8524 96.055 49.8893C96.1609 49.9107 96.2612 49.9509 96.35 50.0077C96.4389 50.0645 96.5146 50.1367 96.5729 50.2202C96.6311 50.3037 96.6707 50.3968 96.6894 50.4943C96.7082 50.5918 96.7056 50.6917 96.682 50.7883Z" fill="#FEC272"/>
<path d="M108.684 50.5039L109.266 72.6089C109.265 72.6552 109.254 72.7008 109.233 72.7429C109.212 72.7849 109.181 72.8225 109.144 72.8532C109.106 72.884 109.061 72.9072 109.013 72.9214C108.965 72.9356 108.914 72.9405 108.863 72.9358C108.778 72.922 108.7 72.8821 108.643 72.8227C108.586 72.7633 108.553 72.6879 108.55 72.6089L106.893 50.5039C106.889 50.3849 106.914 50.2666 106.967 50.1576C107.019 50.0485 107.098 49.9515 107.196 49.8733C107.295 49.7952 107.411 49.7379 107.537 49.7057C107.662 49.6734 107.794 49.6669 107.923 49.6867C108.132 49.7249 108.321 49.8263 108.459 49.9746C108.597 50.1229 108.677 50.3094 108.684 50.5039Z" fill="#FEC272"/>
<path d="M62.154 30.4418C61.703 29.9596 61.3264 29.4235 61.0344 28.8483L60.0044 22.5559L62.3779 24.558L62.154 30.4418Z" fill="#738DE0"/>
<path d="M128.972 32.5665C127.714 34.744 126.132 36.7517 124.269 38.532C120.239 42.4545 113.432 46.9082 103.31 46.9082C96.1898 46.9082 90.9053 44.7427 87.1435 42.1276C83.6028 39.6841 80.7733 36.4852 78.9032 32.8117L128.972 32.5665Z" fill="#273D7A"/>
<path d="M128.972 32.5665C127.714 34.744 126.132 36.7517 124.269 38.532C120.081 39.9629 115.721 40.9366 111.282 41.433C100.892 42.6997 92.7862 42.618 87.1435 42.1276C83.6028 39.6841 80.7733 36.4852 78.9032 32.8117L128.972 32.5665Z" fill="#072359"/>
<path d="M144.736 22.3107C144.496 24.2536 144.107 26.1787 143.571 28.0719C143.419 28.5938 143.177 29.0903 142.855 29.5429C141.914 30.9321 140.123 32.4439 137.212 33.874C136.719 34.1192 136.137 34.3643 135.555 34.6095C135.107 34.8138 134.659 34.9772 134.167 35.1815C133.495 35.4267 132.823 35.6718 132.107 35.917C129.179 36.8266 126.187 37.5502 123.15 38.0825C122.881 38.1234 122.657 38.1643 122.388 38.2051C121.717 38.3277 120.911 38.4094 120.06 38.4911C116.477 38.8589 111.73 39.104 106.669 39.1858C105.729 39.1858 104.788 39.2266 103.848 39.2266C99.056 39.2675 94.2193 39.1449 90.0096 38.9406C89.1139 38.8997 88.2183 38.8589 87.4122 38.7772C85.3389 38.657 83.2752 38.4251 81.232 38.0825C78.948 37.6739 76.8879 37.2245 75.0518 36.7342C74.2905 36.5299 73.5739 36.3256 72.8574 36.1213C67.3042 34.446 63.9454 32.4031 62.1988 30.5235C61.9467 30.2714 61.7217 29.9977 61.527 29.7063C61.3432 29.4654 61.1928 29.2046 61.0792 28.93C60.9352 28.6716 60.8298 28.3967 60.7657 28.1128C60.3836 26.7142 60.0994 25.2949 59.9148 23.8634C59.7357 22.515 59.6909 21.6161 59.6909 21.6161L102.236 24.5172L144.78 22.3516L144.736 22.3107Z" fill="#99ADF9"/>
<path d="M144.691 22.229C144.614 22.6476 144.394 23.0335 144.064 23.3322C142.944 24.5172 140.257 26.2741 135.689 27.8677C135.107 28.0719 134.48 28.2762 133.808 28.4805C133.495 28.5623 133.181 28.6848 132.868 28.7666C132.196 28.9709 131.48 29.1752 130.718 29.3386C127.792 30.087 124.815 30.6602 121.806 31.0547C121 31.1773 120.149 31.2999 119.254 31.3816C115.049 31.8675 110.818 32.1403 106.58 32.1988C105.684 32.1988 104.744 32.2396 103.803 32.2396H103.758C98.9664 32.2396 94.5328 32.0353 90.547 31.7085C89.6514 31.6267 88.7557 31.545 87.9048 31.4633C83.9857 31.0696 80.0971 30.4556 76.261 29.6246C75.4996 29.4612 74.7383 29.2569 74.0218 29.0934C67.3489 27.4182 62.9601 25.3344 60.9448 23.6183C60.5924 23.3242 60.277 22.9953 60.0044 22.6376C59.7604 22.3419 59.6199 21.9859 59.6013 21.6161C59.6013 18.7151 72.1408 12.5453 103.982 12.5453C135.824 12.5044 144.691 20.2269 144.691 22.229Z" fill="#273D7A"/>
<path d="M85.6208 15.8549L62.3331 24.558C61.4445 23.9937 60.6457 23.32 59.9596 22.5559L84.8595 15.4872L85.6208 15.8549Z" fill="#072359"/>
<path d="M144.691 22.2699C144.601 22.6727 144.383 23.0423 144.064 23.3322L120.149 15.8549L120.911 15.528L144.691 22.2699Z" fill="#072359"/>
<path d="M89.5618 18.1022L76.2609 29.5838C75.4996 29.4203 74.7383 29.216 74.0218 29.0526L88.7557 18.0613L89.5618 18.1022Z" fill="#072359"/>
<path d="M96.8616 19.4506L90.547 31.7084C89.6514 31.6267 88.7557 31.545 87.9048 31.4633L96.0555 19.4097L96.8616 19.4506Z" fill="#072359"/>
<path d="M121.851 31.0955C121.045 31.2181 120.149 31.3407 119.298 31.4224L113.118 19.4506L113.969 19.4097L121.851 31.0955Z" fill="#072359"/>
<path d="M106.58 32.2396C105.684 32.2396 104.744 32.2805 103.803 32.2805H103.758L104.833 20.2269L105.684 20.186L106.58 32.2396Z" fill="#072359"/>
<path d="M135.644 27.8676C135.062 28.0719 134.435 28.2762 133.764 28.4805L117.686 18.1022L118.537 18.0613L135.644 27.8676Z" fill="#072359"/>
<path d="M106.624 39.104C105.684 39.104 104.744 39.1449 103.803 39.1449V32.2396L106.58 32.1988L106.624 39.104Z" fill="#738DE0"/>
<path d="M122.299 38.1234C121.582 38.246 120.821 38.3277 119.97 38.4094L119.254 31.3816L121.806 31.0547L122.299 38.1234Z" fill="#738DE0"/>
<path d="M137.167 33.8331C136.675 34.0783 136.092 34.3235 135.51 34.5686L133.808 28.4397L135.644 27.8676L137.167 33.8331Z" fill="#738DE0"/>
<path d="M90.547 31.7084L90.0096 38.8589C89.1139 38.818 88.2183 38.7772 87.4122 38.6954L87.9496 31.4633L90.547 31.7084Z" fill="#738DE0"/>
<path d="M76.2609 29.5838L75.007 36.6525C74.2457 36.4482 73.5291 36.2439 72.8126 36.0396L73.977 29.0526L76.2609 29.5838Z" fill="#738DE0"/>
<path d="M62.3779 24.6398L61.4822 29.6655C61.2984 29.4246 61.148 29.1638 61.0344 28.8892C60.8905 28.6307 60.785 28.3559 60.7209 28.072C60.3388 26.6734 60.0546 25.2541 59.87 23.8226L60.0044 22.5968C60.0044 22.5968 60.7657 23.414 61.0792 23.7C61.3479 23.9451 62.3779 24.6398 62.3779 24.6398Z" fill="#738DE0"/>
<path d="M101.877 25.0892C115.06 25.0892 125.747 22.3269 125.747 18.9194C125.747 15.5119 115.06 12.7496 101.877 12.7496C88.6944 12.7496 78.0075 15.5119 78.0075 18.9194C78.0075 22.3269 88.6944 25.0892 101.877 25.0892Z" fill="#072359"/>
<path d="M123.687 17.9388C123.687 17.9388 121.941 19.7366 117.641 21.2893C114.462 22.4333 109.894 23.414 103.624 23.414C100.619 23.432 97.6199 23.1857 94.6672 22.6785C86.2926 21.2075 82.6651 18.0205 82.6651 18.0205C82.6651 18.0205 84.5012 5.59916 95.9659 1.39062C98.6186 0.442527 101.447 -0.0291874 104.296 0.00139746C120.06 0.00139746 123.687 17.9388 123.687 17.9388Z" fill="#99ADF9"/>
<path d="M94.6672 22.6785C86.2926 21.2075 82.6651 18.0205 82.6651 18.0205C82.6651 18.0205 84.5012 5.59916 95.9659 1.39062C93.7267 3.10673 91.5323 6.53894 91.174 12.1367C90.8157 16.3044 91.8906 19.7775 94.6672 22.6785Z" fill="#7A97F4"/>
<path d="M123.687 17.9388C123.687 17.9388 121.941 19.7366 117.641 21.2893C117.193 19.8089 116.624 18.3612 115.94 16.9581C115.94 16.9581 111.73 17.7753 109.849 14.1388C107.968 10.5023 112.491 7.8873 112.491 7.8873C112.491 7.8873 111.416 4.74111 105.863 2.69813C100.31 0.655151 95.8763 1.39062 95.8763 1.39062C98.529 0.442527 101.357 -0.0291874 104.206 0.00139746C120.06 0.00139746 123.687 17.9388 123.687 17.9388Z" fill="#C2D1FF"/>
<path d="M105.639 10.2571C106.307 10.2571 106.848 9.78152 106.848 9.1948C106.848 8.60808 106.307 8.13245 105.639 8.13245C104.971 8.13245 104.43 8.60808 104.43 9.1948C104.43 9.78152 104.971 10.2571 105.639 10.2571Z" fill="#C2D1FF"/>
<path d="M101.43 11.2786C101.949 11.2786 102.37 10.9128 102.37 10.4614C102.37 10.0101 101.949 9.64426 101.43 9.64426C100.91 9.64426 100.489 10.0101 100.489 10.4614C100.489 10.9128 100.91 11.2786 101.43 11.2786Z" fill="#C2D1FF"/>
<path d="M104.251 16.7947C105.265 16.7947 106.087 16.063 106.087 15.1603C106.087 14.2577 105.265 13.5259 104.251 13.5259C103.237 13.5259 102.415 14.2577 102.415 15.1603C102.415 16.063 103.237 16.7947 104.251 16.7947Z" fill="#C2D1FF"/>
</g>
<defs>
<clipPath id="clip0_141_533">
<rect width="203" height="95" fill="white"/>
</clipPath>
</defs>
</svg>
